@startuml Bezique

/'! $CONFIG : toml
SmRunnerSettings.transpilerId = "CSharp"

[RenderConfig.CSharp]
NameSpace = "BeziqueCore;"
'/

hide empty description
skinparam stateMessageAlignment center

state StartGame

[*] --> StartGame
StartGame --> DealTwoPlayer : TwoPlayerGame
StartGame --> DealFourPlayer : FourPlayerGame

state DealTwoPlayer{
    state Deal2_FirstPlayer
    state Deal2_SecondPlayer
    
    [*] -down-> Deal2_FirstPlayer 
    Deal2_FirstPlayer --> Deal2_SecondPlayer : Complete
    Deal2_SecondPlayer --> Deal2_FirstPlayer : DealNotComplete
    Deal2_SecondPlayer --> FlipTrump : DealComplete
    
    Deal2_FirstPlayer : enter / _adapter.DealThreeCards();
    Deal2_SecondPlayer : enter / _adapter.DealThreeCards();
    
}

state DealFourPlayer{
    state Deal4_FirstPlayer
    state Deal4_SecondPlayer
    state Deal4_ThirdPlayer
    state Deal4_FourthPlayer
    
    [*] -down-> Deal4_FirstPlayer 
    Deal4_FirstPlayer --> Deal4_SecondPlayer : Complete
    Deal4_SecondPlayer --> Deal4_ThirdPlayer : Complete
    Deal4_ThirdPlayer --> Deal4_FourthPlayer : Complete
    Deal4_FourthPlayer --> Deal4_FirstPlayer : DealNotComplete
    Deal4_FourthPlayer --> FlipTrump : DealComplete
    
    Deal4_FirstPlayer : enter / _adapter.DealThreeCards();
    Deal4_SecondPlayer : enter / _adapter.DealThreeCards();
    Deal4_ThirdPlayer : enter / _adapter.DealThreeCards();
    Deal4_FourthPlayer : enter / _adapter.DealThreeCards();
}



state FlipTrump

FlipTrump : enter / _adapter.FlipCard();

FlipTrump --> Add10PointsToDealer : Trump7
FlipTrump --> PlayPhase1 : OtherCard

Add10PointsToDealer : enter / _adapter.Add10PointsToDealer();

Add10PointsToDealer --> PlayPhase1



state PlayPhase1{
    state Phase1_TrickStart
    state Phase1_Wait
    state Phase1_Play
    state Phase1_TrickWinner
    
    [*] --> Phase1_TrickStart
    Phase1_TrickStart --> Phase1_Wait :OpponentTurn
    Phase1_TrickStart --> Phase1_Play :PlayerTurn
    
    Phase1_Wait --> Phase1_Play : OpponentPlayed
    Phase1_Play --> Phase1_Wait : WaitingForOpponent
    
    Phase1_Wait : enter / _adapter.AllPlayerPlayed();
    Phase1_Play : enter / _adapter.AllPlayerPlayed();
    
    Phase1_Wait --> Phase1_TrickWinner : AllPlayerPlayed
    Phase1_Play --> Phase1_TrickWinner : AllPlayerPlayed
    
    Phase1_TrickWinner : enter / _adapter.DetermineWinner();
    
    Phase1_TrickWinner --> Meld : MeldOpportunity
    Phase1_TrickWinner --> DrawACard : NoMeldOpportunity
    
    Meld : enter / _adapter.AddMeldPoint();
    
    Meld --> DrawACard : MeldPointGiven
    DrawACard --> DrawACard : MorePlayersToDraw
    DrawACard --> Deck : DrawCardToAll
    
    DrawACard : enter / _adapter.DrawCardFromDeck();
    
    Deck : enter / _adapter.CheckDeckCardCount();
    
    Deck --> PlayPhase2 : DeckEmpty
    Deck --> Phase1_TrickStart : AvailableCardsOnDeck
}

state PlayPhase2{
    state Phase2_TrickStart
    
    state Phase2_Wait
    state Phase2_Play
    state Phase2_TrickWinner
    
    [*] --> Phase2_TrickStart
    Phase2_TrickStart --> Phase2_Wait :OpponentTurn
    Phase2_TrickStart --> Phase2_Play :PlayerTurn
    
    Phase2_Wait : enter / _adapter.AllPlayerPlayed();
    Phase2_Play : enter / _adapter.AllPlayerPlayed();
    
    Phase2_Wait --> Phase2_TrickWinner : AllPlayerPlayed
    Phase2_Play --> Phase2_TrickWinner : AllPlayerPlayed
    Phase2_Play --> Phase2_Wait : WaitingForOpponent
    
    Phase2_TrickWinner : enter / _adapter.DetermineWinner();
    
    Phase2_TrickWinner --> Hand 
    
    Hand : enter / _adapter.CheckCardsOnHand();
        
    Hand --> RoundEnd : HandEmpty
    Hand --> Phase2_TrickStart : MoreCardsInHand
    
    
    
}

RoundEnd --> GameEnd : WinningScore


RoundEnd --> StartGame : WinningScoreNotReached

'state StartGame
'
'
'state Deal2Player {
'    [*] -> Deal2_1
'
'
'    Deal2_1 -> Deal2_2 :  Complete;
'    Deal2_2 --> Deal2_1 : Pending;
'    Deal2_2 --> SelectTrump : Complete;
'
'    Deal2_1 : enter / _adapter.Deal2_1()
'    Deal2_2 : enter / _adapter.Deal2_2()
'}
'state Deal4Player {
'    [*] -> Deal4_1
'
'
'    Deal4_1 -> Deal4_2 : Complete;
'    Deal4_2 -> Deal4_3 : Complete;
'    Deal4_3 -> Deal4_4 : Complete;
'    
'    DealFirst -> DealLast : Complete;
'    DealLast --> DealFirst : Complete;
'
'    Deal4_1 : enter / _adapter.DealFirst()
'    Deal4_2 : enter / _adapter.DealThird()
'    Deal4_3 : enter / _adapter.DealSecond()
'    Deal4_4 : enter / _adapter.DealLastSet()
'}
'
'[*] -> StartGame
'StartGame --> Deal2Player : _adapter.isTwoPlayerGame();
'
'
'state SelectTrump{
'    SelectTrump : enter / _adapter.SelectTrump()
'    
'    SelectTrump --> Play : Complete
'}
'
'state Play {
'    [*] -> PlayFirst
'
'    state PlayFirst
'    state PlayMid
'    state PlayLast
'
'    PlayFirst : enter / _adapter.PlayFirstCard()
'    PlayFirst -> PlayMid : HasMid
'    PlayFirst -> PlayLast : Complete
'
'    PlayMid : enter / _adapter.PlayMidCard()
'    PlayMid -> PlayLast : Complete
'
'    PlayLast : enter / _adapter.PlayLastCard()
'    PlayLast --> Meld : Complete
'}
'
'state Meld {
'    [*] -> TryMelded
'
'    state TryMelded
'    state Melded
'    state NoMeld
'
'    TryMelded : enter / _adapter.TryMeld()
'    TryMelded -> Melded : Success
'    TryMelded -> NoMeld : Failed
'
'    Melded : enter / _adapter.MeldSuccess()
'    Melded -> NewTrick : Complete
'
'    NoMeld : enter / _adapter.MeldFailed()
'    NoMeld --> NewTrick : Complete
'}
'
'state NewTrick
'NewTrick : enter / _adapter.StartNewTrick()
'NewTrick -> AddOneCardToAll : Complete
'
'state AddOneCardToAll
'AddOneCardToAll : enter / _adapter.DrawCardsForAll()
'AddOneCardToAll --> Play : Complete
'AddOneCardToAll --> L9Play : DeckEmpty
'
'state L9Play {
'    [*] -> L9PlayFirst
'
'    state L9PlayFirst
'    state L9PlayMid
'    state L9PlayLast
'
'    L9PlayFirst : enter / _adapter.L9PlayFirstCard()
'    L9PlayFirst --> L9PlayMid : HasMid
'    L9PlayFirst --> L9PlayLast : Complete
'
'    L9PlayMid : enter / _adapter.L9PlayMidCard()
'    L9PlayMid --> L9PlayLast : Complete
'
'    L9PlayLast : enter / _adapter.L9PlayLastCard()
'    L9PlayLast --> L9NewTrick : Complete
'}
'
'state L9NewTrick
'L9NewTrick : enter / _adapter.StartL9NewTrick()
'L9NewTrick --> L9Play : Complete
'L9NewTrick --> RoundEnd : NoCard
'
'state RoundEnd
'RoundEnd : enter / _adapter.EndRound()
'RoundEnd -> CalculatePoint : Complete
'
'state CalculatePoint
'CalculatePoint : enter / _adapter.CalculatePoints()
'CalculatePoint --> Deal : Complete
'CalculatePoint --> GameOver : WinningScore
'
'state GameOver
'GameOver : enter / _adapter.GameOver()

@enduml
